<?xml version="1.0" encoding="UTF-8" standalone="no"?>
<!-- Created with Inkscape (http://www.inkscape.org/) -->

<svg
   xmlns:dc="http://purl.org/dc/elements/1.1/"
   xmlns:cc="http://creativecommons.org/ns#"
   xmlns:rdf="http://www.w3.org/1999/02/22-rdf-syntax-ns#"
   xmlns:svg="http://www.w3.org/2000/svg"
   xmlns="http://www.w3.org/2000/svg"
   xmlns:sodipodi="http://sodipodi.sourceforge.net/DTD/sodipodi-0.dtd"
   xmlns:inkscape="http://www.inkscape.org/namespaces/inkscape"
   width="600"
   height="100"
   viewBox="0 0 158.75 26.458334"
   version="1.1"
   id="svg8"
   inkscape:version="0.92.4 (5da689c313, 2019-01-14)"
   sodipodi:docname="dream-cars-logo.svg">
  <defs
     id="defs2" />
  <sodipodi:namedview
     id="base"
     pagecolor="#ffffff"
     bordercolor="#666666"
     borderopacity="1.0"
     inkscape:pageopacity="0.0"
     inkscape:pageshadow="2"
     inkscape:zoom="1.4142136"
     inkscape:cx="250.25853"
     inkscape:cy="111.57515"
     inkscape:document-units="mm"
     inkscape:current-layer="text817"
     showgrid="false"
     inkscape:window-width="1920"
     inkscape:window-height="1017"
     inkscape:window-x="-8"
     inkscape:window-y="-8"
     inkscape:window-maximized="1"
     units="px" />
  <metadata
     id="metadata5">
    <rdf:RDF>
      <cc:Work
         rdf:about="">
        <dc:format>image/svg+xml</dc:format>
        <dc:type
           rdf:resource="http://purl.org/dc/dcmitype/StillImage" />
        <dc:title></dc:title>
      </cc:Work>
    </rdf:RDF>
  </metadata>
  <g
     inkscape:label="Layer 1"
     inkscape:groupmode="layer"
     id="layer1"
     transform="translate(0,-270.54165)">
    <g
       aria-label="DREAM-CARS"
       transform="scale(0.93090404,1.0742246)"
       style="font-style:normal;font-variant:normal;font-weight:bold;font-stretch:normal;font-size:22.10902405px;line-height:1.25;font-family:'Segoe UI';-inkscape-font-specification:'Segoe UI, Bold';font-variant-ligatures:normal;font-variant-caps:normal;font-variant-numeric:normal;font-feature-settings:normal;text-align:start;letter-spacing:0px;word-spacing:0px;writing-mode:lr-tb;text-anchor:start;fill:#f86500;fill-opacity:0.98823529;stroke:none;stroke-width:0.55272764"
       id="text817">
      <path
         d="M 2.9802322e-8,267.58804 V 252.10741 H 5.4840744 q 8.2477026,0 8.2477026,7.546 0,3.61646 -2.256243,5.77555 -2.2454482,2.15908 -5.9914596,2.15908 z M 3.4869213,254.9466 v 9.81304 h 1.7272675 q 2.2670386,0 3.5516938,-1.36022 1.2954504,-1.36022 1.2954504,-3.70283 0,-2.21306 -1.284655,-3.47613 -1.2738598,-1.27386 -3.58408,-1.27386 z"
         style="font-style:normal;font-variant:normal;font-weight:bold;font-stretch:normal;font-size:22.10902405px;font-family:'Segoe UI';-inkscape-font-specification:'Segoe UI, Bold';font-variant-ligatures:normal;font-variant-caps:normal;font-variant-numeric:normal;font-feature-settings:normal;text-align:start;writing-mode:lr-tb;text-anchor:start;fill:#f86500;fill-opacity:0.98823529;stroke-width:0.55272764"
         id="path1425" />
      <path
         d="m 29.30957,267.58804 h -4.005101 l -2.407379,-3.98351 q -0.269886,-0.45341 -0.518181,-0.80965 -0.248294,-0.35625 -0.507385,-0.60455 -0.248294,-0.25909 -0.528975,-0.38863 -0.269886,-0.14034 -0.593748,-0.14034 h -0.939202 v 5.92668 h -3.486921 v -15.48063 h 5.527256 q 5.63521,0 5.63521,4.21021 0,0.80966 -0.248295,1.50057 -0.248295,0.68011 -0.701702,1.23067 -0.453408,0.55057 -1.101133,0.95 -0.63693,0.39943 -1.424996,0.62614 v 0.0432 q 0.345454,0.10795 0.669316,0.35625 0.323863,0.2375 0.626135,0.56136 0.302271,0.32386 0.572157,0.7017 0.280681,0.36705 0.507385,0.72329 z M 19.809599,254.7199 v 4.30737 h 1.511359 q 1.122724,0 1.802835,-0.64772 0.690907,-0.65852 0.690907,-1.63011 0,-2.02954 -2.428969,-2.02954 z"
         style="font-style:normal;font-variant:normal;font-weight:bold;font-stretch:normal;font-size:22.10902405px;font-family:'Segoe UI';-inkscape-font-specification:'Segoe UI, Bold';font-variant-ligatures:normal;font-variant-caps:normal;font-variant-numeric:normal;font-feature-settings:normal;text-align:start;writing-mode:lr-tb;text-anchor:start;fill:#f86500;fill-opacity:0.98823529;stroke-width:0.55272764"
         id="path1427" />
      <path
         d="m 40.029424,267.58804 h -9.284063 v -15.48063 h 8.927814 v 2.83919 h -5.440892 v 3.44374 h 5.063053 v 2.8284 h -5.063053 v 3.5409 h 5.797141 z"
         style="font-style:normal;font-variant:normal;font-weight:bold;font-stretch:normal;font-size:22.10902405px;font-family:'Segoe UI';-inkscape-font-specification:'Segoe UI, Bold';font-variant-ligatures:normal;font-variant-caps:normal;font-variant-numeric:normal;font-feature-settings:normal;text-align:start;writing-mode:lr-tb;text-anchor:start;fill:#f86500;fill-opacity:0.98823529;stroke-width:0.55272764"
         id="path1429" />
      <path
         d="m 56.449262,267.58804 h -3.799988 l -1.101133,-3.44374 h -5.505666 l -1.090337,3.44374 H 41.17374 l 5.63521,-15.48063 h 4.134647 z m -5.699983,-6.121 -1.662495,-5.20339 q -0.183522,-0.58296 -0.25909,-1.39261 h -0.08636 q -0.05398,0.68011 -0.269886,1.34942 l -1.684086,5.24658 z"
         style="font-style:normal;font-variant:normal;font-weight:bold;font-stretch:normal;font-size:22.10902405px;font-family:'Segoe UI';-inkscape-font-specification:'Segoe UI, Bold';font-variant-ligatures:normal;font-variant-caps:normal;font-variant-numeric:normal;font-feature-settings:normal;text-align:start;writing-mode:lr-tb;text-anchor:start;fill:#f86500;fill-opacity:0.98823529;stroke-width:0.55272764"
         id="path1431" />
      <path
         d="m 76.021361,267.58804 h -3.44374 v -9.26247 q 0,-1.50056 0.129545,-3.31419 h -0.08636 q -0.269886,1.42499 -0.485794,2.05113 l -3.627262,10.52553 h -2.849991 l -3.692035,-10.41758 q -0.151135,-0.42102 -0.485793,-2.15908 h -0.09716 q 0.14034,2.28863 0.14034,4.01589 v 8.56077 h -3.141468 v -15.48063 h 5.106235 l 3.163059,9.17611 q 0.377839,1.10113 0.550566,2.21306 h 0.06477 q 0.291476,-1.28466 0.615339,-2.23465 l 3.163058,-9.15452 h 4.97669 z"
         style="font-style:normal;font-variant:normal;font-weight:bold;font-stretch:normal;font-size:22.10902405px;font-family:'Segoe UI';-inkscape-font-specification:'Segoe UI, Bold';font-variant-ligatures:normal;font-variant-caps:normal;font-variant-numeric:normal;font-feature-settings:normal;text-align:start;writing-mode:lr-tb;text-anchor:start;fill:#f86500;fill-opacity:0.98823529;stroke-width:0.55272764"
         id="path1433" />
      <path
         d="m 85.219057,262.88124 h -5.905096 v -2.38579 h 5.905096 z"
         style="font-style:normal;font-variant:normal;font-weight:bold;font-stretch:normal;font-size:22.10902405px;font-family:'Segoe UI';-inkscape-font-specification:'Segoe UI, Bold';font-variant-ligatures:normal;font-variant-caps:normal;font-variant-numeric:normal;font-feature-settings:normal;text-align:start;writing-mode:lr-tb;text-anchor:start;fill:#f86500;fill-opacity:0.98823529;stroke-width:0.55272764"
         id="path1435" />
      <path
         d="m 99.576972,267.03748 q -1.694881,0.82045 -4.426123,0.82045 -3.562489,0 -5.602824,-2.09431 -2.040334,-2.09431 -2.040334,-5.58124 0,-3.71362 2.288629,-6.02384 2.299425,-2.31022 5.959073,-2.31022 2.267039,0 3.821579,0.57216 v 3.35737 q -1.55454,-0.9284 -3.540898,-0.9284 -2.180675,0 -3.519308,1.37101 -1.338632,1.37102 -1.338632,3.71363 0,2.24545 1.263064,3.58408 1.263065,1.32784 3.400558,1.32784 2.040335,0 3.735216,-0.99318 z"
         style="font-style:normal;font-variant:normal;font-weight:bold;font-stretch:normal;font-size:22.10902405px;font-family:'Segoe UI';-inkscape-font-specification:'Segoe UI, Bold';font-variant-ligatures:normal;font-variant-caps:normal;font-variant-numeric:normal;font-feature-settings:normal;text-align:start;writing-mode:lr-tb;text-anchor:start;fill:#4d4d4d;stroke-width:0.55272764"
         id="path1437" />
      <path
         d="m 115.91044,267.58804 h -3.79998 l -1.10114,-3.44374 h -5.50566 l -1.09034,3.44374 h -3.7784 l 5.63521,-15.48063 h 4.13465 z m -5.69998,-6.121 -1.66249,-5.20339 q -0.18353,-0.58296 -0.25909,-1.39261 h -0.0864 q -0.054,0.68011 -0.26988,1.34942 l -1.68409,5.24658 z"
         style="font-style:normal;font-variant:normal;font-weight:bold;font-stretch:normal;font-size:22.10902405px;font-family:'Segoe UI';-inkscape-font-specification:'Segoe UI, Bold';font-variant-ligatures:normal;font-variant-caps:normal;font-variant-numeric:normal;font-feature-settings:normal;text-align:start;writing-mode:lr-tb;text-anchor:start;fill:#4d4d4d;stroke-width:0.55272764"
         id="path1439" />
      <path
         d="m 130.82972,267.58804 h -4.0051 l -2.40738,-3.98351 q -0.26989,-0.45341 -0.51818,-0.80965 -0.2483,-0.35625 -0.50739,-0.60455 -0.24829,-0.25909 -0.52897,-0.38863 -0.26989,-0.14034 -0.59375,-0.14034 h -0.9392 v 5.92668 h -3.48692 v -15.48063 h 5.52725 q 5.63521,0 5.63521,4.21021 0,0.80966 -0.24829,1.50057 -0.2483,0.68011 -0.7017,1.23067 -0.45341,0.55057 -1.10114,0.95 -0.63693,0.39943 -1.42499,0.62614 v 0.0432 q 0.34545,0.10795 0.66931,0.35625 0.32387,0.2375 0.62614,0.56136 0.30227,0.32386 0.57216,0.7017 0.28068,0.36705 0.50738,0.72329 z m -9.49997,-12.86814 v 4.30737 h 1.51136 q 1.12272,0 1.80283,-0.64772 0.69091,-0.65852 0.69091,-1.63011 0,-2.02954 -2.42897,-2.02954 z"
         style="font-style:normal;font-variant:normal;font-weight:bold;font-stretch:normal;font-size:22.10902405px;font-family:'Segoe UI';-inkscape-font-specification:'Segoe UI, Bold';font-variant-ligatures:normal;font-variant-caps:normal;font-variant-numeric:normal;font-feature-settings:normal;text-align:start;writing-mode:lr-tb;text-anchor:start;fill:#4d4d4d;stroke-width:0.55272764"
         id="path1441" />
      <path
         d="m 131.55301,266.9943 v -3.45454 q 0.9392,0.78807 2.04033,1.1875 1.10113,0.38863 2.22386,0.38863 0.65852,0 1.14431,-0.11875 0.49659,-0.11875 0.82045,-0.32386 0.33466,-0.21591 0.49659,-0.49659 0.16193,-0.29148 0.16193,-0.62613 0,-0.45341 -0.25909,-0.80966 -0.25909,-0.35625 -0.71249,-0.65852 -0.44262,-0.30227 -1.05796,-0.58295 -0.61533,-0.28069 -1.32783,-0.57216 -1.81363,-0.75568 -2.70965,-1.84602 -0.88523,-1.09034 -0.88523,-2.63408 0,-1.20909 0.4858,-2.07272 0.48579,-0.87443 1.31704,-1.43579 0.84204,-0.56137 1.94317,-0.82046 1.10114,-0.26988 2.33182,-0.26988 1.20908,0 2.13749,0.15113 0.9392,0.14034 1.72727,0.44262 v 3.22783 q -0.38864,-0.26989 -0.85284,-0.475 -0.45341,-0.20511 -0.9392,-0.33466 -0.4858,-0.14034 -0.97159,-0.20511 -0.475,-0.0648 -0.90682,-0.0648 -0.59375,0 -1.07954,0.11874 -0.48579,0.10796 -0.82045,0.31307 -0.33466,0.20512 -0.51818,0.49659 -0.18352,0.28068 -0.18352,0.63693 0,0.38864 0.20511,0.7017 0.20511,0.30228 0.58295,0.58296 0.37784,0.26988 0.91761,0.53977 0.53977,0.25909 1.21989,0.53977 0.9284,0.38863 1.66249,0.83125 0.74488,0.43181 1.27386,0.98238 0.52898,0.55057 0.80966,1.26306 0.28068,0.70171 0.28068,1.64091 0,1.29545 -0.49659,2.18067 -0.4858,0.87443 -1.32784,1.425 -0.84204,0.53977 -1.96477,0.77727 -1.11192,0.2375 -2.3534,0.2375 -1.27386,0 -2.42897,-0.21591 -1.14431,-0.21591 -1.98635,-0.64772 z"
         style="font-style:normal;font-variant:normal;font-weight:bold;font-stretch:normal;font-size:22.10902405px;font-family:'Segoe UI';-inkscape-font-specification:'Segoe UI, Bold';font-variant-ligatures:normal;font-variant-caps:normal;font-variant-numeric:normal;font-feature-settings:normal;text-align:start;writing-mode:lr-tb;text-anchor:start;fill:#4d4d4d;stroke-width:0.55272764"
         id="path1443" />
    </g>
    <path
       inkscape:connector-curvature="0"
       d="m 158.28146,274.36338 c 0.25865,0 0.46854,0.21403 0.46854,0.47772 v 0.48824 c 0,0.75766 -0.86773,0.94494 -1.51431,0.94494 l -1.01766,-1.9109 z m -1.35032,3.34978 c 0.59879,1.13316 0.88648,2.15167 0.88648,3.50264 0,1.30896 -0.37202,2.42015 -0.94176,3.80363 v 1.7647 c 0,0.5274 -0.4198,0.95543 -0.93707,0.95543 h -1.40558 c -0.51725,0 -0.93708,-0.42803 -0.93708,-0.95543 v -0.95544 h -12.18186 v 0.95544 c 0,0.5274 -0.4198,0.95543 -0.93706,0.95543 h -1.4056 c -0.51725,0 -0.93705,-0.42803 -0.93705,-0.95543 v -1.7647 c -0.56976,-1.38348 -0.94176,-2.49467 -0.94176,-3.80363 0,-1.35097 0.28768,-2.36947 0.88646,-3.50264 0.77682,-1.46851 1.73451,-3.29914 2.74559,-5.01797 0.7759,-1.32042 1.18259,-1.63094 2.13465,-1.80483 1.43559,-0.26274 2.73436,-0.34872 4.54569,-0.34872 1.81137,0 3.11013,0.086 4.54573,0.34872 0.95204,0.17388 1.35873,0.48441 2.13463,1.80483 1.01108,1.71884 1.96879,3.54946 2.74559,5.01797 z m -15.04832,2.8606 c 0,-0.79111 -0.62973,-1.43317 -1.40561,-1.43317 -0.7759,0 -1.4056,0.64206 -1.4056,1.43317 0,0.79111 0.6297,1.43315 1.4056,1.43315 0.77588,0 1.40561,-0.64204 1.40561,-1.43315 z m 9.37066,0.95545 c 0,-0.26372 -0.20992,-0.47773 -0.46855,-0.47773 h -6.55942 c -0.25863,0 -0.46856,0.21402 -0.46856,0.47773 0,0.2637 0.20992,0.4777 0.46856,0.4777 h 6.55942 c 0.25865,0 0.46855,-0.21403 0.46855,-0.4777 z m 2.75589,-5.28073 c 0,0 -0.69343,-1.74464 -1.52834,-3.00199 -0.18931,-0.28475 -0.4826,-0.47965 -0.8143,-0.54079 -1.41591,-0.25988 -2.6566,-0.34304 -4.16154,-0.34304 -1.50489,0 -2.74559,0.0831 -4.16149,0.34304 -0.33172,0.0601 -0.62502,0.25507 -0.8143,0.54079 -0.83491,1.2564 -1.52838,3.00199 -1.52838,3.00199 1.53681,0.29903 4.03785,0.47485 6.50417,0.47485 2.46638,0 4.9674,-0.17579 6.50418,-0.47485 z m 1.92942,4.32528 c 0,-0.79111 -0.62969,-1.43317 -1.40558,-1.43317 -0.7759,0 -1.4056,0.64206 -1.4056,1.43317 0,0.79111 0.6297,1.43315 1.4056,1.43315 0.77589,0 1.40558,-0.64204 1.40558,-1.43315 z m -17.1464,-6.21037 h -2.06343 c -0.25866,0 -0.46854,0.21402 -0.46854,0.47772 v 0.48823 c 0,0.75767 0.86771,0.94495 1.5143,0.94495 z"
       id="path853"
       style="fill:#f96500;fill-opacity:0.98823529;stroke-width:0.94620836" />
    <g
       aria-label="wypożyczalnia samochodów osobowych"
       transform="scale(1.0183709,0.9819605)"
       style="font-style:normal;font-variant:normal;font-weight:bold;font-stretch:normal;font-size:8.28975391px;line-height:1.25;font-family:'Segoe UI';-inkscape-font-specification:'Segoe UI, Bold';font-variant-ligatures:normal;font-variant-caps:normal;font-variant-numeric:normal;font-feature-settings:normal;text-align:start;letter-spacing:0px;word-spacing:0px;writing-mode:lr-tb;text-anchor:start;fill:#b3b3b3;fill-opacity:1;stroke:none;stroke-width:0.20724383"
       id="text1423">
      <path
         d="m 6.4763703,296.36431 -1.1940808,4.14488 H 3.9384427 l -0.6112075,-2.42864 q -0.060716,-0.24287 -0.068811,-0.53026 h -0.024286 q -0.028334,0.31573 -0.080955,0.51407 l -0.6557325,2.44483 H 1.1697944 L 2.2351742e-8,296.36431 H 1.3033695 l 0.5707302,2.70388 q 0.040477,0.19025 0.060716,0.46144 h 0.024286 q 0.020239,-0.28334 0.072859,-0.47763 l 0.7124007,-2.68769 h 1.2183672 l 0.6395415,2.70388 q 0.024286,0.1012 0.056668,0.46954 h 0.028334 q 0.020239,-0.23477 0.064764,-0.46954 l 0.5383483,-2.70388 z"
         style="font-style:normal;font-variant:normal;font-weight:bold;font-stretch:normal;font-size:8.28975391px;font-family:'Segoe UI';-inkscape-font-specification:'Segoe UI, Bold';font-variant-ligatures:normal;font-variant-caps:normal;font-variant-numeric:normal;font-feature-settings:normal;text-align:start;writing-mode:lr-tb;text-anchor:start;fill:#b3b3b3;stroke-width:0.20724383"
         id="path1446" />
      <path
         d="m 11.02602,296.36431 -1.6838561,4.47679 q -0.6071597,1.61504 -1.8295746,1.61504 -0.4654891,0 -0.7650213,-0.10524 v -1.02002 q 0.2550071,0.14976 0.5545393,0.14976 0.4938232,0 0.6881143,-0.46549 l 0.2185775,-0.51406 -1.6838563,-4.13678 h 1.416706 l 0.7731167,2.52174 q 0.072859,0.23476 0.1133365,0.55453 h 0.016191 q 0.03643,-0.23476 0.1335752,-0.54644 l 0.7812121,-2.52983 z"
         style="font-style:normal;font-variant:normal;font-weight:bold;font-stretch:normal;font-size:8.28975391px;font-family:'Segoe UI';-inkscape-font-specification:'Segoe UI, Bold';font-variant-ligatures:normal;font-variant-caps:normal;font-variant-numeric:normal;font-feature-settings:normal;text-align:start;writing-mode:lr-tb;text-anchor:start;fill:#b3b3b3;stroke-width:0.20724383"
         id="path1448" />
      <path
         d="m 12.843451,300.02751 h -0.01619 v 2.38816 h -1.279083 v -6.05136 h 1.279083 v 0.62335 h 0.01619 q 0.473585,-0.72454 1.331704,-0.72454 0.805498,0 1.242653,0.55453 0.441203,0.5505 0.441203,1.50171 0,1.03622 -0.514062,1.66362 -0.510014,0.6274 -1.360038,0.6274 -0.74883,0 -1.14146,-0.58287 z m -0.03643,-1.70005 v 0.33191 q 0,0.42906 0.226673,0.70026 0.226673,0.2712 0.595016,0.2712 0.437155,0 0.675971,-0.33596 0.242864,-0.34001 0.242864,-0.95932 0,-1.09288 -0.850023,-1.09288 -0.39263,0 -0.64359,0.29953 -0.246911,0.29548 -0.246911,0.78526 z"
         style="font-style:normal;font-variant:normal;font-weight:bold;font-stretch:normal;font-size:8.28975391px;font-family:'Segoe UI';-inkscape-font-specification:'Segoe UI, Bold';font-variant-ligatures:normal;font-variant-caps:normal;font-variant-numeric:normal;font-feature-settings:normal;text-align:start;writing-mode:lr-tb;text-anchor:start;fill:#b3b3b3;stroke-width:0.20724383"
         id="path1450" />
      <path
         d="m 18.672186,300.61038 q -1.036219,0 -1.631236,-0.57883 -0.590968,-0.58287 -0.590968,-1.57861 0,-1.02813 0.615255,-1.60695 0.615255,-0.58287 1.663617,-0.58287 1.032172,0 1.619093,0.58287 0.586921,0.57882 0.586921,1.53409 0,1.03217 -0.60716,1.63123 -0.603112,0.59907 -1.655522,0.59907 z m 0.03238,-3.36771 q -0.453346,0 -0.704305,0.31167 -0.25096,0.31168 -0.25096,0.88241 0,1.19408 0.96336,1.19408 0.918835,0 0.918835,-1.22646 0,-1.1617 -0.92693,-1.1617 z"
         style="font-style:normal;font-variant:normal;font-weight:bold;font-stretch:normal;font-size:8.28975391px;font-family:'Segoe UI';-inkscape-font-specification:'Segoe UI, Bold';font-variant-ligatures:normal;font-variant-caps:normal;font-variant-numeric:normal;font-feature-settings:normal;text-align:start;writing-mode:lr-tb;text-anchor:start;fill:#b3b3b3;stroke-width:0.20724383"
         id="path1452" />
      <path
         d="m 25.047362,300.50919 h -3.719865 v -0.53026 l 2.080534,-2.6715 h -1.8741 v -0.94312 h 3.49724 v 0.63144 l -1.971245,2.57031 h 1.987436 z m -1.74862,-4.80061 q -0.271198,0 -0.449298,-0.16191 -0.174053,-0.16191 -0.174053,-0.39263 0,-0.24287 0.1781,-0.39263 0.178101,-0.15382 0.445251,-0.15382 0.271198,0 0.441203,0.15382 0.174052,0.15381 0.174052,0.39263 0,0.23881 -0.174052,0.39667 -0.170005,0.15787 -0.441203,0.15787 z"
         style="font-style:normal;font-variant:normal;font-weight:bold;font-stretch:normal;font-size:8.28975391px;font-family:'Segoe UI';-inkscape-font-specification:'Segoe UI, Bold';font-variant-ligatures:normal;font-variant-caps:normal;font-variant-numeric:normal;font-feature-settings:normal;text-align:start;writing-mode:lr-tb;text-anchor:start;fill:#b3b3b3;stroke-width:0.20724383"
         id="path1454" />
      <path
         d="m 29.677966,296.36431 -1.683857,4.47679 q -0.607159,1.61504 -1.829574,1.61504 -0.465489,0 -0.765021,-0.10524 v -1.02002 q 0.255007,0.14976 0.554539,0.14976 0.493823,0 0.688114,-0.46549 l 0.218578,-0.51406 -1.683857,-4.13678 h 1.416706 l 0.773117,2.52174 q 0.07286,0.23476 0.113337,0.55453 h 0.01619 q 0.03643,-0.23476 0.133575,-0.54644 l 0.781212,-2.52983 z"
         style="font-style:normal;font-variant:normal;font-weight:bold;font-stretch:normal;font-size:8.28975391px;font-family:'Segoe UI';-inkscape-font-specification:'Segoe UI, Bold';font-variant-ligatures:normal;font-variant-caps:normal;font-variant-numeric:normal;font-feature-settings:normal;text-align:start;writing-mode:lr-tb;text-anchor:start;fill:#b3b3b3;stroke-width:0.20724383"
         id="path1456" />
      <path
         d="m 33.260208,300.35942 q -0.433107,0.25096 -1.250749,0.25096 -0.955264,0 -1.546233,-0.57883 -0.590969,-0.57882 -0.590969,-1.49361 0,-1.05646 0.631446,-1.66362 0.635494,-0.6112 1.696,-0.6112 0.732639,0 1.060505,0.19429 v 1.08479 q -0.400725,-0.29953 -0.894548,-0.29953 -0.550492,0 -0.87431,0.32382 -0.319771,0.31977 -0.319771,0.88645 0,0.55049 0.307627,0.86621 0.307628,0.31168 0.845976,0.31168 0.477633,0 0.935026,-0.29953 z"
         style="font-style:normal;font-variant:normal;font-weight:bold;font-stretch:normal;font-size:8.28975391px;font-family:'Segoe UI';-inkscape-font-specification:'Segoe UI, Bold';font-variant-ligatures:normal;font-variant-caps:normal;font-variant-numeric:normal;font-feature-settings:normal;text-align:start;writing-mode:lr-tb;text-anchor:start;fill:#b3b3b3;stroke-width:0.20724383"
         id="path1458" />
      <path
         d="m 37.384846,300.50919 h -3.719865 v -0.53026 l 2.080534,-2.6715 h -1.8741 v -0.94312 h 3.49724 v 0.63144 l -1.971245,2.57031 h 1.987436 z"
         style="font-style:normal;font-variant:normal;font-weight:bold;font-stretch:normal;font-size:8.28975391px;font-family:'Segoe UI';-inkscape-font-specification:'Segoe UI, Bold';font-variant-ligatures:normal;font-variant-caps:normal;font-variant-numeric:normal;font-feature-settings:normal;text-align:start;writing-mode:lr-tb;text-anchor:start;fill:#b3b3b3;stroke-width:0.20724383"
         id="path1460" />
      <path
         d="m 41.517581,300.50919 h -1.210272 v -0.59502 h -0.01619 q -0.416916,0.69621 -1.234558,0.69621 -0.603112,0 -0.951217,-0.34001 -0.344057,-0.34406 -0.344057,-0.91479 0,-1.20622 1.428849,-1.39242 l 1.12527,-0.14976 q 0,-0.68002 -0.736687,-0.68002 -0.740735,0 -1.408611,0.4412 v -0.96336 q 0.26715,-0.13762 0.728592,-0.24286 0.465489,-0.10524 0.845976,-0.10524 1.772906,0 1.772906,1.76885 z m -1.202176,-1.68386 v -0.27929 l -0.752878,0.0971 q -0.623351,0.081 -0.623351,0.56264 0,0.21857 0.149766,0.36024 0.153814,0.13763 0.412869,0.13763 0.360248,0 0.586921,-0.24691 0.226673,-0.25096 0.226673,-0.63145 z"
         style="font-style:normal;font-variant:normal;font-weight:bold;font-stretch:normal;font-size:8.28975391px;font-family:'Segoe UI';-inkscape-font-specification:'Segoe UI, Bold';font-variant-ligatures:normal;font-variant-caps:normal;font-variant-numeric:normal;font-feature-settings:normal;text-align:start;writing-mode:lr-tb;text-anchor:start;fill:#b3b3b3;stroke-width:0.20724383"
         id="path1462" />
      <path
         d="M 43.816694,300.50919 H 42.53761 v -6.13637 h 1.279084 z"
         style="font-style:normal;font-variant:normal;font-weight:bold;font-stretch:normal;font-size:8.28975391px;font-family:'Segoe UI';-inkscape-font-specification:'Segoe UI, Bold';font-variant-ligatures:normal;font-variant-caps:normal;font-variant-numeric:normal;font-feature-settings:normal;text-align:start;writing-mode:lr-tb;text-anchor:start;fill:#b3b3b3;stroke-width:0.20724383"
         id="path1464" />
      <path
         d="m 48.904689,300.50919 h -1.275035 v -2.30316 q 0,-0.96336 -0.688114,-0.96336 -0.331914,0 -0.546444,0.255 -0.21453,0.25501 -0.21453,0.64764 v 2.36388 h -1.279083 v -4.14488 h 1.279083 v 0.65573 h 0.01619 q 0.457394,-0.75692 1.331704,-0.75692 1.376228,0 1.376228,1.70814 z"
         style="font-style:normal;font-variant:normal;font-weight:bold;font-stretch:normal;font-size:8.28975391px;font-family:'Segoe UI';-inkscape-font-specification:'Segoe UI, Bold';font-variant-ligatures:normal;font-variant-caps:normal;font-variant-numeric:normal;font-feature-settings:normal;text-align:start;writing-mode:lr-tb;text-anchor:start;fill:#b3b3b3;stroke-width:0.20724383"
         id="path1466" />
      <path
         d="m 50.568308,295.70858 q -0.323819,0 -0.530253,-0.19025 -0.206434,-0.19429 -0.206434,-0.47358 0,-0.28739 0.206434,-0.46954 0.206434,-0.18215 0.530253,-0.18215 0.327866,0 0.530253,0.18215 0.206434,0.18215 0.206434,0.46954 0,0.29144 -0.206434,0.47763 -0.202387,0.1862 -0.530253,0.1862 z m 0.631446,4.80061 h -1.279083 v -4.14488 h 1.279083 z"
         style="font-style:normal;font-variant:normal;font-weight:bold;font-stretch:normal;font-size:8.28975391px;font-family:'Segoe UI';-inkscape-font-specification:'Segoe UI, Bold';font-variant-ligatures:normal;font-variant-caps:normal;font-variant-numeric:normal;font-feature-settings:normal;text-align:start;writing-mode:lr-tb;text-anchor:start;fill:#b3b3b3;stroke-width:0.20724383"
         id="path1468" />
      <path
         d="m 55.733214,300.50919 h -1.210271 v -0.59502 h -0.01619 q -0.416917,0.69621 -1.234558,0.69621 -0.603112,0 -0.951217,-0.34001 -0.344057,-0.34406 -0.344057,-0.91479 0,-1.20622 1.428849,-1.39242 l 1.125269,-0.14976 q 0,-0.68002 -0.736687,-0.68002 -0.740735,0 -1.40861,0.4412 v -0.96336 q 0.26715,-0.13762 0.728591,-0.24286 0.465489,-0.10524 0.845976,-0.10524 1.772906,0 1.772906,1.76885 z m -1.202176,-1.68386 v -0.27929 l -0.752878,0.0971 q -0.62335,0.081 -0.62335,0.56264 0,0.21857 0.149766,0.36024 0.153813,0.13763 0.412868,0.13763 0.360248,0 0.586921,-0.24691 0.226673,-0.25096 0.226673,-0.63145 z"
         style="font-style:normal;font-variant:normal;font-weight:bold;font-stretch:normal;font-size:8.28975391px;font-family:'Segoe UI';-inkscape-font-specification:'Segoe UI, Bold';font-variant-ligatures:normal;font-variant-caps:normal;font-variant-numeric:normal;font-feature-settings:normal;text-align:start;writing-mode:lr-tb;text-anchor:start;fill:#b3b3b3;stroke-width:0.20724383"
         id="path1470" />
      <path
         d="m 58.764963,300.3999 v -1.03622 q 0.315723,0.19024 0.627398,0.28334 0.315723,0.0931 0.595017,0.0931 0.340009,0 0.5343,-0.0931 0.198339,-0.0931 0.198339,-0.28334 0,-0.12143 -0.08905,-0.20239 -0.08905,-0.081 -0.230721,-0.14167 -0.137622,-0.0607 -0.303579,-0.10929 -0.165957,-0.0486 -0.319771,-0.10929 -0.246912,-0.0931 -0.437155,-0.19834 -0.186196,-0.10928 -0.315723,-0.25096 -0.12548,-0.14167 -0.194291,-0.32786 -0.06476,-0.1862 -0.06476,-0.4412 0,-0.34811 0.149766,-0.59907 0.153814,-0.25096 0.404773,-0.40882 0.255007,-0.16191 0.578826,-0.23477 0.327866,-0.0769 0.680019,-0.0769 0.275245,0 0.558586,0.0445 0.283342,0.0405 0.558587,0.12143 v 0.98765 q -0.242863,-0.14167 -0.522157,-0.21048 -0.275246,-0.0729 -0.542396,-0.0729 -0.12548,0 -0.238816,0.0243 -0.109289,0.0202 -0.194291,0.0648 -0.085,0.0405 -0.133575,0.10929 -0.04857,0.0648 -0.04857,0.14976 0,0.11334 0.07286,0.19429 0.07286,0.081 0.190243,0.14167 0.117385,0.0567 0.259055,0.10525 0.145719,0.0445 0.287389,0.0931 0.255007,0.089 0.461442,0.19429 0.206434,0.10525 0.352152,0.24692 0.149766,0.14167 0.226673,0.33191 0.08096,0.19024 0.08096,0.45335 0,0.36834 -0.161909,0.63144 -0.157862,0.25906 -0.425012,0.42501 -0.263103,0.16191 -0.611208,0.23477 -0.344057,0.0769 -0.716448,0.0769 -0.684067,0 -1.26694,-0.21048 z"
         style="font-style:normal;font-variant:normal;font-weight:bold;font-stretch:normal;font-size:8.28975391px;font-family:'Segoe UI';-inkscape-font-specification:'Segoe UI, Bold';font-variant-ligatures:normal;font-variant-caps:normal;font-variant-numeric:normal;font-feature-settings:normal;text-align:start;writing-mode:lr-tb;text-anchor:start;fill:#b3b3b3;stroke-width:0.20724383"
         id="path1472" />
      <path
         d="m 66.127788,300.50919 h -1.210272 v -0.59502 h -0.01619 q -0.416916,0.69621 -1.234558,0.69621 -0.603112,0 -0.951217,-0.34001 -0.344057,-0.34406 -0.344057,-0.91479 0,-1.20622 1.428849,-1.39242 l 1.125269,-0.14976 q 0,-0.68002 -0.736687,-0.68002 -0.740735,0 -1.40861,0.4412 v -0.96336 q 0.26715,-0.13762 0.728591,-0.24286 0.46549,-0.10524 0.845976,-0.10524 1.772907,0 1.772907,1.76885 z m -1.202177,-1.68386 v -0.27929 l -0.752878,0.0971 q -0.62335,0.081 -0.62335,0.56264 0,0.21857 0.149766,0.36024 0.153814,0.13763 0.412868,0.13763 0.360248,0 0.586921,-0.24691 0.226673,-0.25096 0.226673,-0.63145 z"
         style="font-style:normal;font-variant:normal;font-weight:bold;font-stretch:normal;font-size:8.28975391px;font-family:'Segoe UI';-inkscape-font-specification:'Segoe UI, Bold';font-variant-ligatures:normal;font-variant-caps:normal;font-variant-numeric:normal;font-feature-settings:normal;text-align:start;writing-mode:lr-tb;text-anchor:start;fill:#b3b3b3;stroke-width:0.20724383"
         id="path1474" />
      <path
         d="m 73.729428,300.50919 h -1.275035 v -2.36388 q 0,-0.90264 -0.663828,-0.90264 -0.315723,0 -0.514062,0.27119 -0.198339,0.2712 -0.198339,0.67598 v 2.31935 h -1.279083 v -2.38817 q 0,-0.87835 -0.651685,-0.87835 -0.327866,0 -0.526205,0.25905 -0.194291,0.25906 -0.194291,0.70431 v 2.30316 h -1.279083 v -4.14488 H 68.4269 v 0.64764 h 0.01619 q 0.198339,-0.33192 0.554539,-0.53835 0.360248,-0.21048 0.78526,-0.21048 0.878358,0 1.202176,0.77311 0.473585,-0.77311 1.39242,-0.77311 1.351942,0 1.351942,1.66766 z"
         style="font-style:normal;font-variant:normal;font-weight:bold;font-stretch:normal;font-size:8.28975391px;font-family:'Segoe UI';-inkscape-font-specification:'Segoe UI, Bold';font-variant-ligatures:normal;font-variant-caps:normal;font-variant-numeric:normal;font-feature-settings:normal;text-align:start;writing-mode:lr-tb;text-anchor:start;fill:#b3b3b3;stroke-width:0.20724383"
         id="path1476" />
      <path
         d="m 76.716654,300.61038 q -1.036219,0 -1.631236,-0.57883 -0.590969,-0.58287 -0.590969,-1.57861 0,-1.02813 0.615256,-1.60695 0.615255,-0.58287 1.663617,-0.58287 1.032172,0 1.619093,0.58287 0.586921,0.57882 0.586921,1.53409 0,1.03217 -0.60716,1.63123 -0.603112,0.59907 -1.655522,0.59907 z m 0.03238,-3.36771 q -0.453346,0 -0.704305,0.31167 -0.25096,0.31168 -0.25096,0.88241 0,1.19408 0.96336,1.19408 0.918835,0 0.918835,-1.22646 0,-1.1617 -0.92693,-1.1617 z"
         style="font-style:normal;font-variant:normal;font-weight:bold;font-stretch:normal;font-size:8.28975391px;font-family:'Segoe UI';-inkscape-font-specification:'Segoe UI, Bold';font-variant-ligatures:normal;font-variant-caps:normal;font-variant-numeric:normal;font-feature-settings:normal;text-align:start;writing-mode:lr-tb;text-anchor:start;fill:#b3b3b3;stroke-width:0.20724383"
         id="path1478" />
      <path
         d="m 82.950157,300.35942 q -0.433107,0.25096 -1.250749,0.25096 -0.955264,0 -1.546233,-0.57883 -0.590969,-0.57882 -0.590969,-1.49361 0,-1.05646 0.631446,-1.66362 0.635494,-0.6112 1.696,-0.6112 0.732639,0 1.060505,0.19429 v 1.08479 q -0.400725,-0.29953 -0.894548,-0.29953 -0.550492,0 -0.87431,0.32382 -0.319771,0.31977 -0.319771,0.88645 0,0.55049 0.307627,0.86621 0.307628,0.31168 0.845976,0.31168 0.477633,0 0.935026,-0.29953 z"
         style="font-style:normal;font-variant:normal;font-weight:bold;font-stretch:normal;font-size:8.28975391px;font-family:'Segoe UI';-inkscape-font-specification:'Segoe UI, Bold';font-variant-ligatures:normal;font-variant-caps:normal;font-variant-numeric:normal;font-feature-settings:normal;text-align:start;writing-mode:lr-tb;text-anchor:start;fill:#b3b3b3;stroke-width:0.20724383"
         id="path1480" />
      <path
         d="m 87.771009,300.50919 h -1.275035 v -2.35578 q 0,-0.91074 -0.663828,-0.91074 -0.34001,0 -0.550492,0.255 -0.210482,0.25501 -0.210482,0.64764 v 2.36388 h -1.279083 v -6.13637 h 1.279083 v 2.60674 h 0.01619 q 0.469537,-0.71644 1.275035,-0.71644 1.408611,0 1.408611,1.70004 z"
         style="font-style:normal;font-variant:normal;font-weight:bold;font-stretch:normal;font-size:8.28975391px;font-family:'Segoe UI';-inkscape-font-specification:'Segoe UI, Bold';font-variant-ligatures:normal;font-variant-caps:normal;font-variant-numeric:normal;font-feature-settings:normal;text-align:start;writing-mode:lr-tb;text-anchor:start;fill:#b3b3b3;stroke-width:0.20724383"
         id="path1482" />
      <path
         d="m 90.754183,300.61038 q -1.036219,0 -1.631236,-0.57883 -0.590969,-0.58287 -0.590969,-1.57861 0,-1.02813 0.615256,-1.60695 0.615255,-0.58287 1.663617,-0.58287 1.032172,0 1.619093,0.58287 0.586921,0.57882 0.586921,1.53409 0,1.03217 -0.60716,1.63123 -0.603112,0.59907 -1.655522,0.59907 z m 0.03238,-3.36771 q -0.453346,0 -0.704305,0.31167 -0.25096,0.31168 -0.25096,0.88241 0,1.19408 0.96336,1.19408 0.918835,0 0.918835,-1.22646 0,-1.1617 -0.92693,-1.1617 z"
         style="font-style:normal;font-variant:normal;font-weight:bold;font-stretch:normal;font-size:8.28975391px;font-family:'Segoe UI';-inkscape-font-specification:'Segoe UI, Bold';font-variant-ligatures:normal;font-variant-caps:normal;font-variant-numeric:normal;font-feature-settings:normal;text-align:start;writing-mode:lr-tb;text-anchor:start;fill:#b3b3b3;stroke-width:0.20724383"
         id="path1484" />
      <path
         d="m 97.902481,300.50919 h -1.279083 v -0.57073 h -0.01619 q -0.437155,0.67192 -1.283131,0.67192 -0.777164,0 -1.250749,-0.54644 -0.473584,-0.5505 -0.473584,-1.53409 0,-1.02813 0.522157,-1.64743 0.522157,-0.6193 1.368133,-0.6193 0.801451,0 1.117174,0.57477 h 0.01619 v -2.46507 h 1.279083 z m -1.254797,-2.01577 v -0.31168 q 0,-0.40477 -0.234768,-0.67192 -0.234768,-0.26715 -0.611207,-0.26715 -0.425012,0 -0.663828,0.33596 -0.238816,0.33191 -0.238816,0.91479 0,0.54644 0.23072,0.84192 0.230721,0.29549 0.639542,0.29549 0.388582,0 0.631446,-0.31168 0.246911,-0.31167 0.246911,-0.82573 z"
         style="font-style:normal;font-variant:normal;font-weight:bold;font-stretch:normal;font-size:8.28975391px;font-family:'Segoe UI';-inkscape-font-specification:'Segoe UI, Bold';font-variant-ligatures:normal;font-variant-caps:normal;font-variant-numeric:normal;font-feature-settings:normal;text-align:start;writing-mode:lr-tb;text-anchor:start;fill:#b3b3b3;stroke-width:0.20724383"
         id="path1486" />
      <path
         d="m 100.95447,300.61038 q -1.036219,0 -1.631236,-0.57883 -0.590969,-0.58287 -0.590969,-1.57861 0,-1.02813 0.615256,-1.60695 0.615255,-0.58287 1.663619,-0.58287 1.03217,0 1.61909,0.58287 0.58692,0.57882 0.58692,1.53409 0,1.03217 -0.60716,1.63123 -0.60311,0.59907 -1.65552,0.59907 z m 0.0324,-3.36771 q -0.45334,0 -0.7043,0.31167 -0.25096,0.31168 -0.25096,0.88241 0,1.19408 0.96336,1.19408 0.91883,0 0.91883,-1.22646 0,-1.1617 -0.92693,-1.1617 z m 1.37218,-2.84151 -1.26694,1.30742 h -0.92288 l 1.05241,-1.30742 z"
         style="font-style:normal;font-variant:normal;font-weight:bold;font-stretch:normal;font-size:8.28975391px;font-family:'Segoe UI';-inkscape-font-specification:'Segoe UI, Bold';font-variant-ligatures:normal;font-variant-caps:normal;font-variant-numeric:normal;font-feature-settings:normal;text-align:start;writing-mode:lr-tb;text-anchor:start;fill:#b3b3b3;stroke-width:0.20724383"
         id="path1488" />
      <path
         d="m 110.04972,296.36431 -1.19408,4.14488 h -1.34385 l -0.61121,-2.42864 q -0.0607,-0.24287 -0.0688,-0.53026 h -0.0243 q -0.0283,0.31573 -0.081,0.51407 l -0.65573,2.44483 h -1.32766 l -1.16979,-4.14488 h 1.30337 l 0.57073,2.70388 q 0.0405,0.19025 0.0607,0.46144 h 0.0243 q 0.0202,-0.28334 0.0729,-0.47763 l 0.7124,-2.68769 h 1.21837 l 0.63954,2.70388 q 0.0243,0.1012 0.0567,0.46954 h 0.0283 q 0.0202,-0.23477 0.0648,-0.46954 l 0.53834,-2.70388 z"
         style="font-style:normal;font-variant:normal;font-weight:bold;font-stretch:normal;font-size:8.28975391px;font-family:'Segoe UI';-inkscape-font-specification:'Segoe UI, Bold';font-variant-ligatures:normal;font-variant-caps:normal;font-variant-numeric:normal;font-feature-settings:normal;text-align:start;writing-mode:lr-tb;text-anchor:start;fill:#b3b3b3;stroke-width:0.20724383"
         id="path1490" />
      <path
         d="m 114.91104,300.61038 q -1.03622,0 -1.63123,-0.57883 -0.59097,-0.58287 -0.59097,-1.57861 0,-1.02813 0.61525,-1.60695 0.61526,-0.58287 1.66362,-0.58287 1.03217,0 1.61909,0.58287 0.58693,0.57882 0.58693,1.53409 0,1.03217 -0.60716,1.63123 -0.60312,0.59907 -1.65553,0.59907 z m 0.0324,-3.36771 q -0.45335,0 -0.70431,0.31167 -0.25096,0.31168 -0.25096,0.88241 0,1.19408 0.96336,1.19408 0.91884,0 0.91884,-1.22646 0,-1.1617 -0.92693,-1.1617 z"
         style="font-style:normal;font-variant:normal;font-weight:bold;font-stretch:normal;font-size:8.28975391px;font-family:'Segoe UI';-inkscape-font-specification:'Segoe UI, Bold';font-variant-ligatures:normal;font-variant-caps:normal;font-variant-numeric:normal;font-feature-settings:normal;text-align:start;writing-mode:lr-tb;text-anchor:start;fill:#b3b3b3;stroke-width:0.20724383"
         id="path1492" />
      <path
         d="m 117.73232,300.3999 v -1.03622 q 0.31572,0.19024 0.6274,0.28334 0.31572,0.0931 0.59501,0.0931 0.34001,0 0.5343,-0.0931 0.19834,-0.0931 0.19834,-0.28334 0,-0.12143 -0.0891,-0.20239 -0.0891,-0.081 -0.23072,-0.14167 -0.13762,-0.0607 -0.30358,-0.10929 -0.16596,-0.0486 -0.31977,-0.10929 -0.24691,-0.0931 -0.43716,-0.19834 -0.18619,-0.10928 -0.31572,-0.25096 -0.12548,-0.14167 -0.19429,-0.32786 -0.0648,-0.1862 -0.0648,-0.4412 0,-0.34811 0.14976,-0.59907 0.15382,-0.25096 0.40478,-0.40882 0.255,-0.16191 0.57882,-0.23477 0.32787,-0.0769 0.68002,-0.0769 0.27525,0 0.55859,0.0445 0.28334,0.0405 0.55858,0.12143 v 0.98765 q -0.24286,-0.14167 -0.52215,-0.21048 -0.27525,-0.0729 -0.5424,-0.0729 -0.12548,0 -0.23882,0.0243 -0.10928,0.0202 -0.19429,0.0648 -0.085,0.0405 -0.13357,0.10929 -0.0486,0.0648 -0.0486,0.14976 0,0.11334 0.0729,0.19429 0.0729,0.081 0.19025,0.14167 0.11738,0.0567 0.25905,0.10525 0.14572,0.0445 0.28739,0.0931 0.25501,0.089 0.46144,0.19429 0.20644,0.10525 0.35216,0.24692 0.14976,0.14167 0.22667,0.33191 0.081,0.19024 0.081,0.45335 0,0.36834 -0.16191,0.63144 -0.15786,0.25906 -0.42501,0.42501 -0.2631,0.16191 -0.6112,0.23477 -0.34406,0.0769 -0.71645,0.0769 -0.68407,0 -1.26694,-0.21048 z"
         style="font-style:normal;font-variant:normal;font-weight:bold;font-stretch:normal;font-size:8.28975391px;font-family:'Segoe UI';-inkscape-font-specification:'Segoe UI, Bold';font-variant-ligatures:normal;font-variant-caps:normal;font-variant-numeric:normal;font-feature-settings:normal;text-align:start;writing-mode:lr-tb;text-anchor:start;fill:#b3b3b3;stroke-width:0.20724383"
         id="path1494" />
      <path
         d="m 123.62177,300.61038 q -1.03622,0 -1.63124,-0.57883 -0.59097,-0.58287 -0.59097,-1.57861 0,-1.02813 0.61526,-1.60695 0.61525,-0.58287 1.66362,-0.58287 1.03217,0 1.61909,0.58287 0.58692,0.57882 0.58692,1.53409 0,1.03217 -0.60716,1.63123 -0.60311,0.59907 -1.65552,0.59907 z m 0.0324,-3.36771 q -0.45335,0 -0.70431,0.31167 -0.25096,0.31168 -0.25096,0.88241 0,1.19408 0.96336,1.19408 0.91884,0 0.91884,-1.22646 0,-1.1617 -0.92693,-1.1617 z"
         style="font-style:normal;font-variant:normal;font-weight:bold;font-stretch:normal;font-size:8.28975391px;font-family:'Segoe UI';-inkscape-font-specification:'Segoe UI, Bold';font-variant-ligatures:normal;font-variant-caps:normal;font-variant-numeric:normal;font-feature-settings:normal;text-align:start;writing-mode:lr-tb;text-anchor:start;fill:#b3b3b3;stroke-width:0.20724383"
         id="path1496" />
      <path
         d="m 128.00951,300.02751 h -0.0162 v 0.48168 h -1.27908 v -6.13637 h 1.27908 v 2.61484 h 0.0162 q 0.47358,-0.72454 1.34789,-0.72454 0.80145,0 1.23456,0.55049 0.4331,0.55049 0.4331,1.50575 0,1.03622 -0.50596,1.66362 -0.50597,0.6274 -1.35194,0.6274 -0.76503,0 -1.15765,-0.58287 z m -0.0364,-1.74862 v 0.42501 q 0,0.40072 0.23072,0.66383 0.23072,0.2631 0.59096,0.2631 0.43716,0 0.67598,-0.33596 0.24286,-0.34001 0.24286,-0.95932 0,-0.51406 -0.22263,-0.80145 -0.21857,-0.29143 -0.62739,-0.29143 -0.38454,0 -0.63955,0.28739 -0.25095,0.28738 -0.25095,0.74883 z"
         style="font-style:normal;font-variant:normal;font-weight:bold;font-stretch:normal;font-size:8.28975391px;font-family:'Segoe UI';-inkscape-font-specification:'Segoe UI, Bold';font-variant-ligatures:normal;font-variant-caps:normal;font-variant-numeric:normal;font-feature-settings:normal;text-align:start;writing-mode:lr-tb;text-anchor:start;fill:#b3b3b3;stroke-width:0.20724383"
         id="path1498" />
      <path
         d="m 133.83824,300.61038 q -1.03622,0 -1.63124,-0.57883 -0.59097,-0.58287 -0.59097,-1.57861 0,-1.02813 0.61526,-1.60695 0.61525,-0.58287 1.66361,-0.58287 1.03218,0 1.6191,0.58287 0.58692,0.57882 0.58692,1.53409 0,1.03217 -0.60716,1.63123 -0.60311,0.59907 -1.65552,0.59907 z m 0.0324,-3.36771 q -0.45335,0 -0.70431,0.31167 -0.25096,0.31168 -0.25096,0.88241 0,1.19408 0.96336,1.19408 0.91884,0 0.91884,-1.22646 0,-1.1617 -0.92693,-1.1617 z"
         style="font-style:normal;font-variant:normal;font-weight:bold;font-stretch:normal;font-size:8.28975391px;font-family:'Segoe UI';-inkscape-font-specification:'Segoe UI, Bold';font-variant-ligatures:normal;font-variant-caps:normal;font-variant-numeric:normal;font-feature-settings:normal;text-align:start;writing-mode:lr-tb;text-anchor:start;fill:#b3b3b3;stroke-width:0.20724383"
         id="path1500" />
      <path
         d="m 142.93349,296.36431 -1.19408,4.14488 h -1.34384 l -0.61121,-2.42864 q -0.0607,-0.24287 -0.0688,-0.53026 h -0.0243 q -0.0283,0.31573 -0.081,0.51407 l -0.65574,2.44483 h -1.32765 l -1.1698,-4.14488 h 1.30337 l 0.57073,2.70388 q 0.0405,0.19025 0.0607,0.46144 h 0.0243 q 0.0202,-0.28334 0.0729,-0.47763 l 0.7124,-2.68769 h 1.21837 l 0.63954,2.70388 q 0.0243,0.1012 0.0567,0.46954 h 0.0283 q 0.0202,-0.23477 0.0648,-0.46954 l 0.53835,-2.70388 z"
         style="font-style:normal;font-variant:normal;font-weight:bold;font-stretch:normal;font-size:8.28975391px;font-family:'Segoe UI';-inkscape-font-specification:'Segoe UI, Bold';font-variant-ligatures:normal;font-variant-caps:normal;font-variant-numeric:normal;font-feature-settings:normal;text-align:start;writing-mode:lr-tb;text-anchor:start;fill:#b3b3b3;stroke-width:0.20724383"
         id="path1502" />
      <path
         d="m 147.48314,296.36431 -1.68385,4.47679 q -0.60716,1.61504 -1.82958,1.61504 -0.46549,0 -0.76502,-0.10524 v -1.02002 q 0.25501,0.14976 0.55454,0.14976 0.49382,0 0.68811,-0.46549 l 0.21858,-0.51406 -1.68386,-4.13678 h 1.41671 l 0.77312,2.52174 q 0.0729,0.23476 0.11333,0.55453 h 0.0162 q 0.0364,-0.23476 0.13358,-0.54644 l 0.78121,-2.52983 z"
         style="font-style:normal;font-variant:normal;font-weight:bold;font-stretch:normal;font-size:8.28975391px;font-family:'Segoe UI';-inkscape-font-specification:'Segoe UI, Bold';font-variant-ligatures:normal;font-variant-caps:normal;font-variant-numeric:normal;font-feature-settings:normal;text-align:start;writing-mode:lr-tb;text-anchor:start;fill:#b3b3b3;stroke-width:0.20724383"
         id="path1504" />
      <path
         d="m 151.06538,300.35942 q -0.4331,0.25096 -1.25074,0.25096 -0.95527,0 -1.54624,-0.57883 -0.59097,-0.57882 -0.59097,-1.49361 0,-1.05646 0.63145,-1.66362 0.63549,-0.6112 1.696,-0.6112 0.73264,0 1.0605,0.19429 v 1.08479 q -0.40072,-0.29953 -0.89454,-0.29953 -0.5505,0 -0.87431,0.32382 -0.31978,0.31977 -0.31978,0.88645 0,0.55049 0.30763,0.86621 0.30763,0.31168 0.84598,0.31168 0.47763,0 0.93502,-0.29953 z"
         style="font-style:normal;font-variant:normal;font-weight:bold;font-stretch:normal;font-size:8.28975391px;font-family:'Segoe UI';-inkscape-font-specification:'Segoe UI, Bold';font-variant-ligatures:normal;font-variant-caps:normal;font-variant-numeric:normal;font-feature-settings:normal;text-align:start;writing-mode:lr-tb;text-anchor:start;fill:#b3b3b3;stroke-width:0.20724383"
         id="path1506" />
      <path
         d="m 155.88624,300.50919 h -1.27504 v -2.35578 q 0,-0.91074 -0.66383,-0.91074 -0.34001,0 -0.55049,0.255 -0.21048,0.25501 -0.21048,0.64764 v 2.36388 h -1.27908 v -6.13637 h 1.27908 v 2.60674 h 0.0162 q 0.46954,-0.71644 1.27504,-0.71644 1.40861,0 1.40861,1.70004 z"
         style="font-style:normal;font-variant:normal;font-weight:bold;font-stretch:normal;font-size:8.28975391px;font-family:'Segoe UI';-inkscape-font-specification:'Segoe UI, Bold';font-variant-ligatures:normal;font-variant-caps:normal;font-variant-numeric:normal;font-feature-settings:normal;text-align:start;writing-mode:lr-tb;text-anchor:start;fill:#b3b3b3;stroke-width:0.20724383"
         id="path1508" />
    </g>
  </g>
</svg>
